# xmcd
#
# Track frame offsets: 
#        150
#        21824
#        40815
#        55517
#        77031
#        95735
#        115680
#        138078
#        153079
#        173124
#        194574
#        208074
#
# Disc length: 3118 seconds
#
# Revision: 0
# Processed by: cddbd v1.5.2PL0 Copyright (c) Steve Scherf et al.
# Submitted via: ExactAudioCopy v0.99pb4
#
DISCID=950c2c0c
DTITLE=Jim Byrnes - Everywhere Westh
DYEAR=2010
DGENRE=Blues
TTITLE0=Hot as a Pistol
TTITLE1=Yield Not to Temptation
TTITLE2=Bootlegger's Blues
TTITLE3=Black Nights
TTITLE4=Walk On
TTITLE5=No Mail Blues
TTITLE6=Storm Warning
TTITLE7=From Four Until Late
TTITLE8=Take Out Some Insurance on Me
TTITLE9=He Was a Friend of Mine
TTITLE10=You Can't Get That Stuff No More
TTITLE11=Me and Piney Brown
EXTD=
EXTT0=
EXTT1=
EXTT2=
EXTT3=
EXTT4=
EXTT5=
EXTT6=
EXTT7=
EXTT8=
EXTT9=
EXTT10=
EXTT11=
PLAYORDER=
